<svg id="Layer_1" data-name="Layer 1" xmlns="http://www.w3.org/2000/svg" xmlns:xlink="http://www.w3.org/1999/xlink" viewBox="0 0 842.99 500"><defs><style>.cls-1{fill:#e6e6e6;}.cls-1,.cls-3{fill-rule:evenodd;}.cls-2{fill:url(#linear-gradient);}.cls-3,.cls-4{fill:#fff;}.cls-4{stroke:#276dc3;stroke-miterlimit:10;stroke-width:10px;}</style><linearGradient id="linear-gradient" x1="122.07" y1="37.04" x2="807.21" y2="495.7" gradientUnits="userSpaceOnUse"><stop offset="0" stop-color="#d58a2e"/><stop offset="0" stop-color="#276dc3"/></linearGradient></defs><title>ocrug mono-outline</title><path class="cls-1" d="M799,368c-26.22,24.38-64.1,35.79-108,35.79-84.19,0-152.43-61.38-152.43-137.09S606.82,129.57,691,129.57c43,0,80.24,11,106.39,34.37l56.38-56.39a250,250,0,0,0-388.69,3.75A249.56,249.56,0,0,0,269.23,16.67c-138.07,0-250,111.93-250,250s111.93,250,250,250A249.54,249.54,0,0,0,465.09,422a250,250,0,0,0,390,2.08Z" transform="translate(-19.23 -16.67)"/><path class="cls-2" d="M799,368c-26.22,24.38-64.1,35.79-108,35.79-84.19,0-152.43-61.38-152.43-137.09S606.82,129.57,691,129.57c43,0,80.24,11,106.39,34.37l56.38-56.39a250,250,0,0,0-388.69,3.75A249.56,249.56,0,0,0,269.23,16.67c-138.07,0-250,111.93-250,250s111.93,250,250,250A249.54,249.54,0,0,0,465.09,422a250,250,0,0,0,390,2.08Z" transform="translate(-19.23 -16.67)"/><path class="cls-3" d="M321.08,278.25s17.35,5.23,27.44,10.33c3.49,1.77,9.55,5.31,13.91,9.94a37.55,37.55,0,0,1,6.36,9.15L437.18,423l-110.53,0L275,326s-10.58-18.19-17.1-23.46c-5.43-4.4-7.75-6-13.12-6H218.48l0,126.41-97.81,0V100.07H317.1s89.46,1.62,89.46,86.73S321.08,278.25,321.08,278.25ZM278.54,170.12l-59.21,0,0,54.91,59.24,0S306,224.88,306,197C306,168.63,278.54,170.12,278.54,170.12Z" transform="translate(-19.23 -16.67)"/><path class="cls-4" d="M579.22,278.16v-87.5h37v91.25c0,32,10,43,28.25,43s28.75-11,28.75-43V190.66h35.5v87.5c0,54.75-22.25,78.5-64.25,78.5C602.22,356.66,579.22,332.91,579.22,278.16Z" transform="translate(-19.23 -16.67)"/><path class="cls-4" d="M723.71,273.16c0-54,36-85.5,79.5-85.5a70.36,70.36,0,0,1,51.25,21.25l-19.25,23.5c-8.25-7.25-16.75-13-30.75-13-25.25,0-43,19.75-43,52.5,0,33.5,15.25,53,45.75,53,6.75,0,13.5-1.75,17.5-5v-28h-27v-30h59.5v75c-11.25,11-31,19.75-53.75,19.75C758.71,356.66,723.71,327.91,723.71,273.16Z" transform="translate(-19.23 -16.67)"/></svg>