<svg xmlns="http://www.w3.org/2000/svg" viewBox="0 0 400 400"><defs><style>.cls-1{fill:#92b3df;}</style></defs><g id="HQ"><path class="cls-1" d="M177.26,142l.1.14.1-.14c0-.14-.06-.28-.1-.49C177.32,141.7,177.29,141.84,177.26,142Z"/><path class="cls-1" d="M277.19,102.89a68,68,0,0,0-34.84-23.52Q221,73,174.91,73H81.72V83.68a18,18,0,0,1,7.87,8c1.7,3.57,2.52,12.22,2.52,25.94V282.42c0,13.72-.82,22.35-2.52,25.85a18.62,18.62,0,0,1-7.87,8V327h90V150l-7.53,7.41-2.45-6.27-1.46,10.11-7.46,7.34-1.17-3-1.28-3.3-1.46,10.08-7.46,7.34L139,173.48l-1.46,10.09-13,12.82s-3.08-23.08,14.87-40.71a45.89,45.89,0,0,1,12.29-8.7,45,45,0,0,1,14.77-4.3H157.3l2.64-6.17-8.11,6.17H141.36l2.65-6.17-8.12,6.17H125.42l2.65-6.17L120,142.68h-18.3s14-18.61,39.16-18.61a46.86,46.86,0,0,1,10.86,1.29,44.78,44.78,0,0,1,17,7.94l-5.47-5.81,6.32-2.3-10.06-1.7-7.16-7.63,6.31-2.29-6.9-1.16-3.15-.54-7.17-7.62,6.31-2.31-10-1.68L125.11,86.92a52,52,0,0,1,26.57,5.49,49.3,49.3,0,0,1,13.78,10.31,45.32,45.32,0,0,1,11.9,23.66,45.35,45.35,0,0,1,11.91-23.66,49.07,49.07,0,0,1,14-10.43,52.38,52.38,0,0,1,26.31-5.37l-12.51,13.34-1.66.27-8.4,1.41,6.32,2.31-7.17,7.62-10.06,1.7,6.32,2.29-7.17,7.63-10.06,1.7,6.32,2.3-5.47,5.84a45.09,45.09,0,0,1,27.82-9.26A49,49,0,0,1,227.5,126a52.35,52.35,0,0,1,25.56,16.69H234.77l-5.88-4.47-2.24-1.7L229,142l.31.68H218.83l-8.11-6.17,2.65,6.17H202.89l-8.11-6.17,2.65,6.17h-9.18a45,45,0,0,1,27.06,13A48.14,48.14,0,0,1,225,169a52.35,52.35,0,0,1,5.25,27.4l-13-12.82-.17-1.2-1.29-8.89-2.46,6.25-7.45-7.34-1.46-10.08-2.46,6.27-7.45-7.34L193,151.13l-2.46,6.27L183,150v81.92H252l-17.74-25q23.22-5.81,36.15-17.42,20.24-18.37,20.24-46.45Q290.67,120,277.19,102.89Z"/><path class="cls-1" d="M318.28,317.21a31.22,31.22,0,0,1-5.89-3.5q-5.07-4.15-17-20.8l-43.34-61H183L250.2,327h68.08Z"/></g></svg>